# xmcd CD database file
#
# Track frame offsets:
#	150
#	18685
#	39340
#	62475
#	78057
#	106847
#	132570
#	154810
#	184197
#	210032
#	244787
#	270690
#	298002
#
# Disc length: 4508 seconds
#
# Revision: 0
# Processed by: cddbd v1.5.2PL0 Copyright (c) Steve Scherf et al.
# Submitted via: CDex 1.50
#
DISCID=ab119a0d
DTITLE=Elmore D - The Elmore D band
DYEAR=2004
DGENRE=Blues
TTITLE0=I can't be satisfied
TTITLE1=Gotta move
TTITLE2=Drop down mama
TTITLE3=It ain't no lie
TTITLE4=Walking blues
TTITLE5=Roadrunner
TTITLE6=Dji n'oûveûre qui l'londi
TTITLE7=It's tight like that
TTITLE8=Broke and hungry
TTITLE9=Outside woman blues - I'm so glad
TTITLE10=Pick a bale o' cotton
TTITLE11=Whitewash station
TTITLE12=I can't hold out - My heart beat like a hammer
EXTD=YEAR: 2004
EXTT0=
EXTT1=
EXTT2=
EXTT3=
EXTT4=
EXTT5=
EXTT6=
EXTT7=
EXTT8=
EXTT9=
EXTT10=
EXTT11=
EXTT12=
PLAYORDER=
